# xmcd
#
# Track frame offsets: 
#        150
#        9026
#        22284
#        33617
#        47052
#        57273
#        68455
#        76810
#        88253
#        99420
#        108604
#        119678
#        129776
#
# Disc length: 1963 seconds
#
# Revision: 0
# Processed by: cddbd v1.5.2PL0 Copyright (c) Steve Scherf et al.
# Submitted via: ExactAudioCopy v0.95b4
#
DISCID=a307a90d
DTITLE=Ronnie McDowell - The Number Ones That Got Away Vol. 1
DYEAR=1900
DGENRE=Country
TTITLE0=Never ending
TTITLE1=Please don't stop loving me
TTITLE2=Sentimental me
TTITLE3=Soldier boy
TTITLE4=Easy question
TTITLE5=I'm falling in love tonight
TTITLE6=I got lucky
TTITLE7=Is it so strange
TTITLE8=Angel
TTITLE9=Don't ask me why
TTITLE10=Anyone (could fall in love with you)
TTITLE11=Ask me
TTITLE12=Just pretend
EXTD=
EXTT0=
EXTT1=
EXTT2=
EXTT3=
EXTT4=
EXTT5=
EXTT6=
EXTT7=
EXTT8=
EXTT9=
EXTT10=
EXTT11=
EXTT12=
PLAYORDER=
